# xmcd
#
# Track frame offsets: 
#        150
#        12923
#        25120
#        39538
#        51619
#        62407
#        75632
#        85911
#        98875
#        113512
#        124100
#        140178
#        150651
#        172570
#        194433
#        209765
#        221018
#        235292
#
# Disc length: 3368 seconds
#
# Revision: 0
# Processed by: cddbd v1.5.2PL0 Copyright (c) Steve Scherf et al.
# Submitted via: ExactAudioCopy v0.99pb4
#
DISCID=f60d2612
DTITLE=Various Artist - Up Country - CD 1
DYEAR=2007
DGENRE=Country
TTITLE0=Johnny Cash - Folsom Prison Blues
TTITLE1=Dolly Parton - Jolene
TTITLE2=Glen Campbell - Rhinestone Cowboy
TTITLE3=The Kendalls - Sweet Desire
TTITLE4=Slim Whitman - Rose Marie
TTITLE5=Crystal Gayle - Talking In Your Sleep
TTITLE6=Carl Perkins - Blue Suede Shoes
TTITLE7=Billie Jo Spears - '57 Chevrolet
TTITLE8=Asleep At The Wheel - The Letter That Johnny Walker Wrote
TTITLE9=Big Bill Lister - There's A Tear In My Beer
TTITLE10=Billie Jo Spears - Blanket on the Ground
TTITLE11=Bobbie Gentry and Glen Campbell - Walk Right Back
TTITLE12=Charlie Daniels - Tenessee Two Step
TTITLE13=Dan Seals - Everything That Glitters (Is Not Gold)
TTITLE14=Deana Carter - We Danced Anyway
TTITLE15=Diane Pfeifer - Wishful Drinkin'
TTITLE16=Asleep At The Wheel With Dolly Parton - Billy Dale
TTITLE17=Don Williams - Heartbeat In The Darkness
EXTD=
EXTT0=
EXTT1=
EXTT2=
EXTT3=
EXTT4=
EXTT5=
EXTT6=
EXTT7=
EXTT8=
EXTT9=
EXTT10=
EXTT11=
EXTT12=
EXTT13=
EXTT14=
EXTT15=
EXTT16=
EXTT17=
PLAYORDER=
